<svg xmlns="http://www.w3.org/2000/svg" viewBox="0 0 224.02 217.19"><defs><style>.cls-1{fill:#ed6b38;}.cls-2{fill:#fff;}.cls-3{fill:#3aaf73;}.cls-4{fill:#fefefe;}</style></defs><title>reservaconfirmada</title><g id="Capa_2" data-name="Capa 2"><g id="Capa_1-2" data-name="Capa 1"><path class="cls-1" d="M147,129.36c0-11.16,0-22,0-32.78,0-7.7,4.07-12.5,10.5-12.49S168,88.91,168,96.57v10.59c4.27,1.8,7.55,4,11.07,4.48,5.85.84,11.5,3.55,16.83,4.09,10.21,1,14,2.9,14.12,13.12,0,1.14,0,2.28,0,3.78h6.74c.08-1.61.21-3.08.21-4.54q0-53.76,0-107.5c0-9.73-3.57-13.41-13.16-13.41H22.36c-1.67,0-3.34,0-5,.1C11.19,7.72,7.1,11.69,7.08,17.94q-.12,56.51,0,113a12.15,12.15,0,0,0,.48,2c39.33,0,162.92-.32,202.49-.32,0,2.59.59,5.32.26,7.8-39.53,0-163.37-.35-203.17-.35,0,4.4-.37,8.23.08,12,.7,5.8,5,8.89,11.9,8.9q38.49.08,77,0c9.81,0,29.5.07,39.55.07,1.21,2,5.88,4.66,5.88,7.18-1.73.09-19.24-.07-21-.07-12.83,0-25.67.23-38.49-.11-4.63-.12-7.2,1-8,5.78A55,55,0,0,1,72,180.94c7.09,2.45,9,1.72,11.2-4.58,1.2-3.48,3.07-4.94,7-4.88,14.66.23,29.33.21,44,0,3.63-.05,5.61,1.27,6.56,4.64,1.12,4,2.36,8,3.85,13h-7.26q-37.5,0-75,0c-5.72,0-6.39.82-5.71,6.73h86.63v7.31h-6q-40.5,0-81,0c-6.65,0-7.19-.57-7.21-7,0-10.19,2.42-12.93,12.38-14.27a4.68,4.68,0,0,0,3.29-2.2c1.42-3.49,2.37-7.18,3.74-11.56H62.35c-14.33,0-28.67,0-43,0C7.18,168.12,0,161,0,149Q0,84,0,19C0,7.46,7.05.08,18.6.07q93.5-.13,187,0C216.86.09,224,7.46,224,18.64q0,65.51,0,131c0,8.17-3.72,13.88-11.08,17.45-1.27.62-2,2.41-2.88,3.75-1,1.62-1.71,3.47-2.85,5-1.33,1.8-3,3.35-5.72,6.37,9-1.4,8.7,3.46,8.58,8.47-.17,7-.15,14,0,21,.08,3.8-1.42,5.54-5.25,5.53q-26.25-.08-52.5,0c-3.75,0-5.45-1.5-5.36-5.4.16-7.16.27-14.34-.06-21.49-.24-5.19.5-9,8-8.48-1.55-1.94-2.34-3.09-3.3-4.09-2.55-2.63-4.88-5.6-7.82-7.71-9.14-6.59-12-15.18-11-26.3C133.77,133.24,135.88,130.1,147,129.36Z"/><path class="cls-1" d="M161,143.35v-21.6c0-8.67.16-17.34-.18-26-.06-1.52-2.24-3-3.44-4.42a32.66,32.66,0,0,0-3.29,4.2c-.44.76-.09,2-.09,3,0,21.33.12,42.66-.09,64,0,5.1.67,9.28,5,12.7,1.66,1.33,2.12,4.16,3.22,6.52H194.2c2.35-3.49,4.2-6,5.83-8.71,1.14-1.87,2.81-3.9,2.84-5.88.26-13,.12-26,.15-39,0-2.71-.44-5.59-3.67-5.16-1.31.17-3,3.2-3.18,5.06-.44,5.07-.16,10.2-.16,15.2h-7c0-6.36,0-12.35,0-18.33,0-2.62,0-5.47-3.49-5.48s-3.54,2.81-3.53,5.45c0,6.12,0,12.24,0,18.39h-7V138c0-5.67.25-11.35-.17-17-.14-1.84-1.88-4.88-3.19-5.05-3.24-.41-3.72,2.48-3.64,5.18,0,1.5,0,3,0,4.5v17.71Z"/><path class="cls-1" d="M154.2,209.61h48.48v-20H154.2Z"/><path class="cls-1" d="M145.78,162.2l1-.58V135.4c-2.71,1.56-6.07,2.47-6.25,3.8a55.14,55.14,0,0,0-.2,15.81C140.74,157.63,143.88,159.82,145.78,162.2Z"/><path class="cls-1" d="M89.15,180.17l.55,1.41h44.81l.39-1.3c-1.23-.56-2.45-1.6-3.68-1.61q-19.15-.18-38.3,0C91.66,178.68,90.41,179.65,89.15,180.17Z"/><path class="cls-1" d="M216.93,140.43H210.3v19.88C219.12,155.51,216.65,147.81,216.93,140.43Z"/><path class="cls-1" d="M122.2,39c3.7-2,31.13-17.35,34.49-18.52,2.22-.78,5.37-1.14,7.3-.14q17.76,9.12,35.06,19.14c1.71,1,2.92,3.73,3.34,5.87.56,2.89.13,6,.11,9,0,6.09-.66,6.67-7,6V89.17c0,6-.6,6.69-6.45,6.71-4.64,0-9.29,0-14.35,0V88.82h13.76c0-10.84.08-21.26-.12-31.69,0-1-1.56-2.37-2.7-3-7.39-4.18-14.8-8.33-22.36-12.18a6.8,6.8,0,0,0-5.36-.12c-7.7,3.93-15.26,8.16-22.79,12.43-1.11.63-2.49,2.06-2.51,3.14-.19,10.29-.11,20.58-.11,31.08l10.17.47v6.87c-4.56,0-8.84.09-13.13,0-3.6-.1-4.12-2.57-4.1-5.56.07-9.82,0-19.65,0-29.46-7-.36-7-.36-7-7.43,0-2.5.17-5,0-7.49-.24-3.2.89-5.18,3.74-6.88M126,51.06c10.18-5.57,20.28-11,30.26-16.61,2.94-1.66,5.44-1.78,8.38-.06,5.59,3.29,11.33,6.33,17,9.43,4.42,2.41,8.87,4.75,13.35,7.14,1.29-4-.09-6-3.24-7.68-9.59-5-19-10.4-28.58-15.39a6.75,6.75,0,0,0-5.36,0c-9.73,5.09-19.26,10.58-29,15.68C125.61,45.26,124.84,47.43,126,51.06Z"/><path class="cls-2" d="M161,143.35h7V125.64c0-1.5,0-3,0-4.5-.08-2.7.4-5.59,3.64-5.18,1.31.17,3,3.21,3.19,5.05.42,5.64.16,11.32.17,17v5.26h7c0-6.15,0-12.27,0-18.39,0-2.64.09-5.46,3.53-5.45s3.5,2.86,3.49,5.48c0,6,0,12,0,18.33h7c0-5-.28-10.13.16-15.2.16-1.86,1.87-4.89,3.18-5.06,3.23-.43,3.67,2.45,3.67,5.16,0,13,.11,26-.15,39,0,2-1.7,4-2.84,5.88-1.63,2.68-3.48,5.22-5.83,8.71H162.09c-1.1-2.36-1.56-5.19-3.22-6.52-4.28-3.42-5-7.6-5-12.7.21-21.33.09-42.66.09-64,0-1-.35-2.2.09-3a32.66,32.66,0,0,1,3.29-4.2c1.2,1.47,3.38,2.9,3.44,4.42.34,8.65.17,17.32.18,26Z"/><path class="cls-1" d="M154.2,209.61v-20h48.48v20Z"/><path class="cls-2" d="M145.78,162.2c-1.9-2.38-5-4.57-5.45-7.19a55.14,55.14,0,0,1,.2-15.81c.18-1.33,3.54-2.24,6.25-3.8v26.22Z"/><path class="cls-2" d="M89.15,180.17c1.26-.52,2.51-1.49,3.77-1.5q19.14-.16,38.3,0c1.23,0,2.45,1.05,3.68,1.61l-.39,1.3H89.7Z"/><path class="cls-1" d="M216.93,140.43c-.28,7.38,2.19,15.08-6.63,19.88V140.43Z"/><path class="cls-3" d="M62.49,98.88A32.7,32.7,0,1,1,95.31,66,32.63,32.63,0,0,1,62.49,98.88Z"/><path class="cls-4" d="M81.87,58.08a3,3,0,0,1-.94,2.53Q70.44,70.8,60,81a2.84,2.84,0,0,1-4.47-.28c-2.69-3.08-5.39-6.14-8.08-9.21a2.93,2.93,0,0,1,.09-4.42,2.88,2.88,0,0,1,4.2.44c1.91,2.09,3.81,4.19,5.6,6.38.78,1,1.17.68,1.88,0q8.74-8.68,17.55-17.3c1.69-1.66,4-1.3,4.94.73A3,3,0,0,1,81.87,58.08Z"/></g></g></svg>